<svg width="183" height="31" viewBox="0 0 183 31" fill="none" xmlns="http://www.w3.org/2000/svg">
<path d="M11.224 12.64H23.192C23.1493 16.0747 22.072 18.9013 19.96 21.12C17.848 23.3173 15.16 24.416 11.896 24.416C8.58933 24.416 5.848 23.3173 3.672 21.12C1.496 18.9227 0.408 16.1493 0.408 12.8C0.408 9.472 1.48533 6.70933 3.64 4.512C5.816 2.31467 8.536 1.216 11.8 1.216C14.5307 1.216 16.9307 1.99467 19 3.552C21.0693 5.088 22.36 7.072 22.872 9.504H19.064C18.5947 8.07467 17.6987 6.93333 16.376 6.08C15.0747 5.20533 13.5813 4.768 11.896 4.768C10.4027 4.768 9.06933 5.10933 7.896 5.792C6.72267 6.45333 5.80533 7.40267 5.144 8.64C4.48267 9.856 4.152 11.2427 4.152 12.8C4.152 15.1893 4.86667 17.1307 6.296 18.624C7.72533 20.1173 9.592 20.864 11.896 20.864C13.6667 20.864 15.224 20.4053 16.568 19.488C17.912 18.5493 18.7867 17.3227 19.192 15.808H11.224V12.64ZM39.6993 21.856C37.9499 23.5627 35.7526 24.416 33.1073 24.416C30.4619 24.416 28.2539 23.5627 26.4833 21.856C24.7339 20.128 23.8592 17.9627 23.8592 15.36C23.8592 13.6533 24.2539 12.1067 25.0433 10.72C25.8539 9.33333 26.9633 8.256 28.3713 7.488C29.8006 6.69867 31.3793 6.304 33.1073 6.304C34.8353 6.304 36.4033 6.69867 37.8113 7.488C39.2406 8.256 40.3499 9.33333 41.1393 10.72C41.9499 12.1067 42.3553 13.6533 42.3553 15.36C42.3553 17.9627 41.4699 20.128 39.6993 21.856ZM33.1073 21.024C34.1953 21.024 35.1659 20.7893 36.0193 20.32C36.8726 19.8293 37.5339 19.1573 38.0033 18.304C38.4939 17.4293 38.7393 16.448 38.7393 15.36C38.7393 13.7173 38.2059 12.3627 37.1393 11.296C36.0939 10.2293 34.7499 9.696 33.1073 9.696C31.4646 9.696 30.1099 10.2293 29.0433 11.296C27.9979 12.3627 27.4753 13.7173 27.4753 15.36C27.4753 17.0027 27.9979 18.3573 29.0433 19.424C30.1099 20.4907 31.4646 21.024 33.1073 21.024ZM58.7793 21.856C57.0299 23.5627 54.8326 24.416 52.1873 24.416C49.5419 24.416 47.3339 23.5627 45.5633 21.856C43.8139 20.128 42.9392 17.9627 42.9392 15.36C42.9392 13.6533 43.3339 12.1067 44.1233 10.72C44.9339 9.33333 46.0433 8.256 47.4513 7.488C48.8806 6.69867 50.4593 6.304 52.1873 6.304C53.9153 6.304 55.4833 6.69867 56.8913 7.488C58.3206 8.256 59.4299 9.33333 60.2193 10.72C61.0299 12.1067 61.4353 13.6533 61.4353 15.36C61.4353 17.9627 60.5499 20.128 58.7793 21.856ZM52.1873 21.024C53.2753 21.024 54.2459 20.7893 55.0993 20.32C55.9526 19.8293 56.6139 19.1573 57.0833 18.304C57.5739 17.4293 57.8193 16.448 57.8193 15.36C57.8193 13.7173 57.2859 12.3627 56.2193 11.296C55.1739 10.2293 53.8299 9.696 52.1873 9.696C50.5446 9.696 49.1899 10.2293 48.1233 11.296C47.0779 12.3627 46.5553 13.7173 46.5553 15.36C46.5553 17.0027 47.0779 18.3573 48.1233 19.424C49.1899 20.4907 50.5446 21.024 52.1873 21.024ZM77.4433 6.72H79.7793V21.728C79.7793 23.5627 79.4273 25.1413 78.7233 26.464C78.0406 27.808 77.0486 28.832 75.7473 29.536C74.4459 30.2613 72.9099 30.624 71.1393 30.624C68.9419 30.624 67.0966 30.08 65.6033 28.992C64.1099 27.9253 63.1393 26.432 62.6913 24.512H66.2433C66.5633 25.4507 67.1713 26.176 68.0673 26.688C68.9846 27.2 69.9979 27.456 71.1073 27.456C72.6433 27.456 73.8913 26.9867 74.8513 26.048C75.8113 25.1093 76.2913 23.8293 76.2913 22.208V21.44C74.6913 22.8053 72.7819 23.488 70.5633 23.488C68.1739 23.488 66.1473 22.6667 64.4833 21.024C62.8406 19.36 62.0193 17.3227 62.0193 14.912C62.0193 12.5013 62.8406 10.464 64.4833 8.8C66.1473 7.136 68.1739 6.304 70.5633 6.304C73.1019 6.304 75.2033 7.18933 76.8673 8.96L77.4433 6.72ZM70.9793 20.192C71.7259 20.192 72.4299 20.064 73.0913 19.808C73.7526 19.5307 74.3179 19.168 74.7873 18.72C75.2566 18.2507 75.6193 17.6853 75.8753 17.024C76.1526 16.3627 76.2913 15.6587 76.2913 14.912C76.2913 13.376 75.7899 12.1067 74.7873 11.104C73.7846 10.1013 72.5153 9.6 70.9793 9.6C69.4433 9.6 68.1633 10.112 67.1393 11.136C66.1366 12.1387 65.6353 13.3973 65.6353 14.912C65.6353 16.4267 66.1366 17.6853 67.1393 18.688C68.1633 19.6907 69.4433 20.192 70.9793 20.192ZM82.9105 24V0.511999H86.4625V24H82.9105ZM106 15.392C106 15.712 105.979 16.1067 105.936 16.576H91.9203C92.1336 17.9627 92.7096 19.0613 93.6483 19.872C94.6083 20.6827 95.7923 21.088 97.2003 21.088C97.8829 21.088 98.5229 20.992 99.1203 20.8C99.7176 20.5867 100.24 20.2987 100.688 19.936C101.158 19.552 101.542 19.0933 101.84 18.56H105.584C104.902 20.3947 103.814 21.8347 102.32 22.88C100.827 23.904 99.1203 24.416 97.2003 24.416C94.6616 24.416 92.5389 23.552 90.8323 21.824C89.1469 20.096 88.3043 17.9413 88.3043 15.36C88.3043 12.7787 89.1469 10.624 90.8323 8.896C92.5389 7.168 94.6616 6.304 97.2003 6.304C98.9283 6.304 100.464 6.72 101.808 7.552C103.152 8.36267 104.187 9.46133 104.912 10.848C105.638 12.2133 106 13.728 106 15.392ZM97.2003 9.504C95.8776 9.504 94.7469 9.87733 93.8083 10.624C92.8909 11.3707 92.2829 12.3947 91.9843 13.696H102.448C102.235 12.8213 101.883 12.0747 101.392 11.456C100.902 10.816 100.294 10.336 99.5683 10.016C98.8643 9.67467 98.0749 9.504 97.2003 9.504ZM127.242 5.056H117.994V11.392H126.41V14.752H117.994V24H114.314V1.6H127.242V5.056ZM145.146 15.392C145.146 15.712 145.125 16.1067 145.083 16.576H131.066C131.28 17.9627 131.856 19.0613 132.794 19.872C133.754 20.6827 134.938 21.088 136.346 21.088C137.029 21.088 137.669 20.992 138.266 20.8C138.864 20.5867 139.387 20.2987 139.835 19.936C140.304 19.552 140.688 19.0933 140.986 18.56H144.731C144.048 20.3947 142.96 21.8347 141.467 22.88C139.973 23.904 138.266 24.416 136.346 24.416C133.808 24.416 131.685 23.552 129.978 21.824C128.293 20.096 127.45 17.9413 127.45 15.36C127.45 12.7787 128.293 10.624 129.978 8.896C131.685 7.168 133.808 6.304 136.346 6.304C138.075 6.304 139.611 6.72 140.955 7.552C142.299 8.36267 143.333 9.46133 144.059 10.848C144.784 12.2133 145.146 13.728 145.146 15.392ZM136.346 9.504C135.024 9.504 133.893 9.87733 132.954 10.624C132.037 11.3707 131.429 12.3947 131.13 13.696H141.595C141.381 12.8213 141.029 12.0747 140.538 11.456C140.048 10.816 139.44 10.336 138.715 10.016C138.01 9.67467 137.221 9.504 136.346 9.504ZM163.414 15.392C163.414 15.712 163.393 16.1067 163.35 16.576H149.334C149.547 17.9627 150.123 19.0613 151.062 19.872C152.022 20.6827 153.206 21.088 154.614 21.088C155.297 21.088 155.937 20.992 156.534 20.8C157.131 20.5867 157.654 20.2987 158.102 19.936C158.571 19.552 158.955 19.0933 159.254 18.56H162.998C162.315 20.3947 161.227 21.8347 159.734 22.88C158.241 23.904 156.534 24.416 154.614 24.416C152.075 24.416 149.953 23.552 148.246 21.824C146.561 20.096 145.718 17.9413 145.718 15.36C145.718 12.7787 146.561 10.624 148.246 8.896C149.953 7.168 152.075 6.304 154.614 6.304C156.342 6.304 157.878 6.72 159.222 7.552C160.566 8.36267 161.601 9.46133 162.326 10.848C163.051 12.2133 163.414 13.728 163.414 15.392ZM154.614 9.504C153.291 9.504 152.161 9.87733 151.222 10.624C150.305 11.3707 149.697 12.3947 149.398 13.696H159.862C159.649 12.8213 159.297 12.0747 158.806 11.456C158.315 10.816 157.707 10.336 156.982 10.016C156.278 9.67467 155.489 9.504 154.614 9.504ZM178.674 0.511999H182.226V24H179.538L179.09 22.048C177.426 23.6267 175.388 24.416 172.978 24.416C170.375 24.416 168.22 23.5627 166.514 21.856C164.828 20.128 163.986 17.9627 163.986 15.36C163.986 12.7573 164.828 10.6027 166.514 8.896C168.22 7.168 170.375 6.304 172.978 6.304C175.175 6.304 177.074 6.976 178.674 8.32V0.511999ZM169.234 19.424C170.3 20.4907 171.644 21.024 173.266 21.024C174.887 21.024 176.231 20.4907 177.298 19.424C178.386 18.336 178.93 16.9813 178.93 15.36C178.93 14.2933 178.684 13.3333 178.194 12.48C177.703 11.6053 177.02 10.9227 176.146 10.432C175.292 9.94133 174.332 9.696 173.266 9.696C172.199 9.696 171.228 9.94133 170.354 10.432C169.5 10.9227 168.828 11.6053 168.338 12.48C167.868 13.3333 167.634 14.2933 167.634 15.36C167.634 16.9813 168.167 18.336 169.234 19.424Z" fill="#0C0B0B"/>
</svg>
